<svg xmlns="http://www.w3.org/2000/svg" aria-hidden="true" style="position:absolute;width:0;height:0;overflow:hidden"><defs><symbol id="icon-add_to_cart" viewBox="0 0 32 32"><path fill="none" stroke="#2c2d35" stroke-linecap="round" stroke-linejoin="round" stroke-width="2.667" d="M12.333 28.222a1.222 1.222 0 1 0 0-2.444 1.222 1.222 0 0 0 0 2.444zM25.778 28.222a1.222 1.222 0 1 0 0-2.444 1.222 1.222 0 0 0 0 2.444zM2.556 2.555h4.889l3.276 16.366a2.445 2.445 0 0 0 2.445 1.968h11.88a2.443 2.443 0 0 0 2.445-1.968l1.956-10.254H8.669" style="stroke:var(--color1, #2c2d35)"/><path fill="#598d66" d="M11.333 20C16.12 20 20 16.12 20 11.333s-3.88-8.667-8.667-8.667a8.667 8.667 0 0 0 0 17.334z" style="fill:var(--color2, #598d66)"/><path fill="#fff" d="M14.306 13.053v1.613H8.893v-1.613h1.893v-4.04c-.107.133-.289.276-.547.427-.249.151-.524.28-.827.387-.293.107-.556.16-.787.16V8.32c.16 0 .351-.049.573-.147.231-.107.458-.231.68-.373a5.11 5.11 0 0 0 .587-.413c.169-.142.276-.253.32-.333h1.827v6h1.693z" style="fill:var(--color3, #fff)"/></symbol><symbol id="icon-facebook" viewBox="0 0 32 32"><path d="M20.536 28v-9.288h3.111l.465-3.611h-3.576v-2.304c0-1.045.291-1.759 1.789-1.759h1.912V7.809a25.69 25.69 0 0 0-2.787-.143c-2.756 0-4.643 1.683-4.643 4.773V15.1H13.69v3.611h3.117v9.288H5.332a1.334 1.334 0 0 1-1.334-1.334V5.332a1.335 1.335 0 0 1 1.334-1.334h21.333a1.335 1.335 0 0 1 1.334 1.334v21.333a1.334 1.334 0 0 1-1.334 1.334h-6.131z"/></symbol><symbol id="icon-instagram" viewBox="0 0 32 32"><path d="M16 2.667c3.623 0 4.075.013 5.496.08 1.42.067 2.387.289 3.237.62a6.51 6.51 0 0 1 2.363 1.537 6.538 6.538 0 0 1 1.537 2.363c.329.849.553 1.817.62 3.237.063 1.421.08 1.873.08 5.496s-.013 4.075-.08 5.496c-.067 1.42-.291 2.387-.62 3.237a6.53 6.53 0 0 1-1.537 2.363 6.55 6.55 0 0 1-2.363 1.537c-.849.329-1.817.553-3.237.62-1.421.063-1.873.08-5.496.08s-4.075-.013-5.496-.08c-1.42-.067-2.387-.291-3.237-.62a6.53 6.53 0 0 1-2.363-1.537 6.53 6.53 0 0 1-1.537-2.363c-.331-.849-.553-1.817-.62-3.237-.063-1.421-.08-1.873-.08-5.496s.013-4.075.08-5.496c.067-1.421.289-2.387.62-3.237a6.516 6.516 0 0 1 1.537-2.363 6.53 6.53 0 0 1 2.363-1.537c.851-.331 1.816-.553 3.237-.62 1.421-.063 1.873-.08 5.496-.08zm0 6.666a6.67 6.67 0 0 0-4.714 11.381 6.67 6.67 0 0 0 9.428 0A6.668 6.668 0 0 0 16 9.333zM24.667 9a1.667 1.667 0 1 0-3.334 0 1.667 1.667 0 0 0 3.334 0zM16 12a4.003 4.003 0 0 1 4 4 4.003 4.003 0 0 1-4 4 4.003 4.003 0 0 1-4-4 4.003 4.003 0 0 1 4-4z"/></symbol><symbol id="icon-ishopping-cart" viewBox="0 0 32 32"><path stroke-linecap="round" stroke-linejoin="round" stroke-width="2.909" d="M12 29.333a1.333 1.333 0 1 0 0-2.667 1.333 1.333 0 0 0 0 2.667zM26.667 29.333a1.333 1.333 0 1 0 0-2.667 1.333 1.333 0 0 0 0 2.667zM1.333 1.333h5.333l3.573 17.853a2.671 2.671 0 0 0 2.666 2.147h12.96a2.667 2.667 0 0 0 2.666-2.147l2.133-11.187H7.997"/></symbol><symbol id="icon-star_1" viewBox="0 0 32 32"><path fill="#598d66" d="m16 0 2.254 8.324L24.65 2.54l-2.604 8.221 8.508-1.408-6.636 5.508 7.919 3.416-8.56 1.046 4.815 7.154-7.767-3.748.183 8.622L16 23.999l-4.508 7.352.183-8.622-7.767 3.748 4.815-7.154-8.56-1.046 7.919-3.416-6.636-5.508 8.508 1.408L7.35 2.54l6.396 5.784L16 0z" style="fill:var(--color2, #598d66)"/></symbol><symbol id="icon-star_2" viewBox="0 0 32 32"><path fill="none" stroke="#eedb6d" stroke-width="1.215" d="m18.892 8.88 4.813-4.352-2.259 7.131 7.38-1.221-5.755 4.778 6.868 2.962-7.425.907 4.176 6.206-6.737-3.251.021.991.137 6.488-3.91-6.377-3.91 6.377.137-6.488.021-.991-6.737 3.251 4.176-6.206-7.425-.907 6.868-2.963-5.755-4.778 7.38 1.221-2.259-7.131 5.548 5.017 1.955-7.22 1.955 7.22.735-.665z" style="stroke:var(--color4, #eedb6d)"/></symbol><symbol id="icon-youtube" viewBox="0 0 32 32"><path d="M28.724 8.664c.609 2.376.609 7.336.609 7.336s0 4.96-.609 7.336c-.339 1.313-1.329 2.347-2.584 2.696-2.279.635-10.14.635-10.14.635s-7.857 0-10.14-.635c-1.26-.355-2.249-1.387-2.584-2.696C2.667 20.96 2.667 16 2.667 16s0-4.96.609-7.336c.339-1.313 1.329-2.347 2.584-2.696C8.143 5.333 16 5.333 16 5.333s7.861 0 10.14.635c1.26.355 2.249 1.387 2.584 2.696zM13.333 20.667l8-4.667-8-4.667v9.333z"/></symbol><symbol id="icon-logo" viewBox="0 0 131 32"><path fill="#598d66" d="m16 0 2.254 8.324L24.65 2.54l-2.604 8.221 8.508-1.408-6.636 5.508 7.919 3.416-8.56 1.046 4.815 7.154-7.767-3.748.183 8.622L16 23.999l-4.508 7.352.183-8.622-7.767 3.748 4.815-7.154-8.56-1.046 7.919-3.416-6.636-5.508 8.508 1.408L7.35 2.54l6.396 5.784L16 0zM40.667 22.857V9.874h2.523v12.983h-2.523zm13.9 0h-2.45v-5.376c0-.768-.134-1.329-.402-1.682s-.64-.53-1.115-.53c-.329 0-.664.085-1.006.256a3.085 3.085 0 0 0-.896.713 2.683 2.683 0 0 0-.585 1.024v5.595h-2.45v-9.582h2.213v1.774c.353-.597.865-1.067 1.536-1.408.67-.354 1.426-.53 2.267-.53.597 0 1.085.11 1.463.329.378.207.67.494.878.859.207.354.347.756.421 1.207.085.451.128.908.128 1.371v5.979zm8.677 0-2.798-4.133-1.298 1.28v2.853h-2.45V9.508h2.45v8.082l3.858-4.297h2.597l-3.566 4.059 3.822 5.504h-2.615zm3.595 0v-2.633h2.011v2.633h-2.011zM86.548 9.874v12.983h-2.505v-5.541h-5.888v5.541h-2.523V9.874h2.523v5.248h5.888V9.874h2.505zm6.736 13.166c-1.049 0-1.951-.226-2.706-.677-.744-.463-1.317-1.073-1.719-1.829s-.603-1.573-.603-2.45c0-.89.201-1.713.603-2.469a4.753 4.753 0 0 1 1.737-1.81c.756-.463 1.651-.695 2.688-.695s1.925.232 2.67.695c.755.451 1.335 1.054 1.737 1.81s.603 1.579.603 2.469c0 .878-.201 1.694-.603 2.45s-.982 1.365-1.737 1.829c-.744.451-1.634.677-2.67.677zm-2.506-4.955c0 .561.11 1.061.329 1.499.219.427.518.762.896 1.006s.805.366 1.28.366c.463 0 .883-.122 1.262-.366a2.7 2.7 0 0 0 .896-1.024c.231-.439.347-.939.347-1.499 0-.549-.116-1.036-.347-1.463a2.533 2.533 0 0 0-.896-1.024 2.204 2.204 0 0 0-1.262-.384 2.23 2.23 0 0 0-1.28.384 2.526 2.526 0 0 0-.896 1.024c-.219.427-.329.92-.329 1.481zm9.078 1.188v-5.998h2.45v5.467c0 1.475.53 2.213 1.591 2.213.475 0 .933-.14 1.371-.421.451-.293.816-.731 1.097-1.317v-5.943h2.45v6.839c0 .268.042.457.128.567.085.098.238.158.457.183v1.993a5.046 5.046 0 0 1-1.061.109c-.439 0-.799-.098-1.079-.293a1.226 1.226 0 0 1-.475-.841l-.055-.768c-.427.658-.976 1.152-1.646 1.481s-1.408.494-2.213.494c-.987 0-1.737-.317-2.249-.951-.512-.646-.768-1.585-.768-2.816zm14.924 3.767c-.816 0-1.597-.134-2.341-.402s-1.383-.664-1.92-1.189l.878-1.591c.573.463 1.134.805 1.682 1.024s1.085.329 1.609.329c.475 0 .853-.085 1.134-.256a.834.834 0 0 0 .439-.768c0-.354-.176-.591-.53-.713a26.221 26.221 0 0 0-1.481-.494c-.707-.219-1.298-.445-1.774-.677s-.835-.512-1.079-.841c-.231-.329-.347-.756-.347-1.28 0-.939.354-1.688 1.061-2.249s1.646-.841 2.816-.841c.683 0 1.328.11 1.938.329.61.207 1.164.549 1.664 1.024l-.987 1.554c-.939-.731-1.847-1.097-2.725-1.097-.39 0-.738.073-1.042.219-.293.146-.439.402-.439.768 0 .341.14.585.421.731.293.146.731.305 1.317.475.756.232 1.396.457 1.92.677.537.219.939.5 1.207.841.281.341.421.805.421 1.39 0 .951-.347 1.694-1.042 2.231s-1.627.805-2.798.805zm9.951 0c-1.037 0-1.933-.226-2.688-.677a4.792 4.792 0 0 1-1.737-1.792 5.01 5.01 0 0 1-.622-2.45c0-.902.201-1.731.603-2.487a4.681 4.681 0 0 1 1.755-1.829c.755-.463 1.658-.695 2.706-.695s1.944.232 2.688.695a4.506 4.506 0 0 1 1.701 1.81c.402.744.603 1.548.603 2.414 0 .317-.018.591-.055.823h-7.406c.06.744.335 1.329.823 1.755.499.427 1.072.64 1.719.64.487 0 .944-.116 1.371-.347.439-.244.737-.561.896-.951l2.103.585c-.354.731-.921 1.335-1.701 1.81-.781.463-1.701.695-2.761.695zm-2.506-5.742h5.01c-.073-.719-.347-1.298-.823-1.737-.464-.451-1.03-.677-1.701-.677-.658 0-1.225.226-1.701.677-.464.439-.726 1.018-.786 1.737z" style="fill:var(--color2, #598d66)"/></symbol><symbol id="icon-mob_menu" viewBox="0 0 32 32"><path fill="#4c5866" d="M5 23a.997.997 0 0 1 1-1h20a.997.997 0 0 1 1 1 .997.997 0 0 1-1 1H6a.997.997 0 0 1-1-1zm0-8a.997.997 0 0 1 1-1h20a.997.997 0 0 1 1 1 .997.997 0 0 1-1 1H6a.997.997 0 0 1-1-1zm0-8a.997.997 0 0 1 1-1h20a.997.997 0 0 1 1 1 .997.997 0 0 1-1 1H6a.997.997 0 0 1-1-1z" style="fill:var(--color5, #4c5866)"/></symbol><symbol id="icon-mob_menu_close" viewBox="0 0 32 32"><path d="M7.2 7.2a1.132 1.132 0 0 1 1.6 0l16 16a1.132 1.132 0 0 1-1.6 1.6l-16-16a1.132 1.132 0 0 1 0-1.6z"/><path d="M24.8 7.2a1.132 1.132 0 0 1 0 1.6l-16 16a1.132 1.132 0 0 1-1.6-1.6l16-16a1.132 1.132 0 0 1 1.6 0z"/></symbol></defs></svg>