<svg aria-hidden="true" style="position: absolute; width: 0; height: 0; overflow: hidden;" version="1.1" xmlns="http://www.w3.org/2000/svg" xmlns:xlink="http://www.w3.org/1999/xlink">
<defs>
<symbol id="icon-add_to_cart" viewBox="0 0 32 32">
<path fill="none" stroke="#2c2d35" style="stroke: var(--color1, #2c2d35)" stroke-linejoin="round" stroke-linecap="round" stroke-miterlimit="4" stroke-width="2.6667" d="M12.333 28.222c0.675 0 1.222-0.547 1.222-1.222s-0.547-1.222-1.222-1.222-1.222 0.547-1.222 1.222c0 0.675 0.547 1.222 1.222 1.222z"></path>
<path fill="none" stroke="#2c2d35" style="stroke: var(--color1, #2c2d35)" stroke-linejoin="round" stroke-linecap="round" stroke-miterlimit="4" stroke-width="2.6667" d="M25.778 28.222c0.675 0 1.222-0.547 1.222-1.222s-0.547-1.222-1.222-1.222c-0.675 0-1.222 0.547-1.222 1.222s0.547 1.222 1.222 1.222z"></path>
<path fill="none" stroke="#2c2d35" style="stroke: var(--color1, #2c2d35)" stroke-linejoin="round" stroke-linecap="round" stroke-miterlimit="4" stroke-width="2.6667" d="M2.556 2.555h4.889l3.276 16.366c0.112 0.563 0.418 1.068 0.865 1.428s1.006 0.551 1.58 0.54h11.88c0.574 0.011 1.133-0.18 1.58-0.54s0.753-0.865 0.865-1.428l1.956-10.254h-20.778"></path>
<path fill="#598d66" style="fill: var(--color2, #598d66)" d="M11.333 20c4.787 0 8.667-3.88 8.667-8.667s-3.88-8.667-8.667-8.667c-4.786 0-8.667 3.88-8.667 8.667s3.88 8.667 8.667 8.667z"></path>
<path fill="#fff" style="fill: var(--color3, #fff)" d="M14.306 13.053v1.613h-5.413v-1.613h1.893v-4.040c-0.107 0.133-0.289 0.276-0.547 0.427-0.249 0.151-0.524 0.28-0.827 0.387-0.293 0.107-0.556 0.16-0.787 0.16v-1.667c0.16 0 0.351-0.049 0.573-0.147 0.231-0.107 0.458-0.231 0.68-0.373 0.231-0.142 0.427-0.28 0.587-0.413 0.169-0.142 0.276-0.253 0.32-0.333h1.827v6h1.693z"></path>
</symbol>
<symbol id="icon-facebook" viewBox="0 0 32 32">
<path d="M20.536 28v-9.288h3.111l0.465-3.611h-3.576v-2.304c0-1.045 0.291-1.759 1.789-1.759h1.912v-3.229c-0.926-0.098-1.856-0.146-2.787-0.143-2.756 0-4.643 1.683-4.643 4.773v2.661h-3.117v3.611h3.117v9.288h-11.475c-0.354 0-0.693-0.141-0.943-0.391s-0.391-0.589-0.391-0.943v-21.333c0-0.354 0.14-0.693 0.391-0.943s0.589-0.391 0.943-0.391h21.333c0.354 0 0.693 0.14 0.943 0.391s0.391 0.589 0.391 0.943v21.333c0 0.354-0.141 0.693-0.391 0.943s-0.589 0.391-0.943 0.391h-6.131z"></path>
</symbol>
<symbol id="icon-instagram" viewBox="0 0 32 32">
<path d="M16 2.667c3.623 0 4.075 0.013 5.496 0.080 1.42 0.067 2.387 0.289 3.237 0.62 0.88 0.339 1.621 0.797 2.363 1.537 0.678 0.667 1.203 1.473 1.537 2.363 0.329 0.849 0.553 1.817 0.62 3.237 0.063 1.421 0.080 1.873 0.080 5.496s-0.013 4.075-0.080 5.496c-0.067 1.42-0.291 2.387-0.62 3.237-0.334 0.89-0.859 1.697-1.537 2.363-0.667 0.678-1.473 1.202-2.363 1.537-0.849 0.329-1.817 0.553-3.237 0.62-1.421 0.063-1.873 0.080-5.496 0.080s-4.075-0.013-5.496-0.080c-1.42-0.067-2.387-0.291-3.237-0.62-0.89-0.334-1.697-0.859-2.363-1.537-0.678-0.666-1.203-1.473-1.537-2.363-0.331-0.849-0.553-1.817-0.62-3.237-0.063-1.421-0.080-1.873-0.080-5.496s0.013-4.075 0.080-5.496c0.067-1.421 0.289-2.387 0.62-3.237 0.334-0.89 0.858-1.697 1.537-2.363 0.666-0.678 1.473-1.203 2.363-1.537 0.851-0.331 1.816-0.553 3.237-0.62 1.421-0.063 1.873-0.080 5.496-0.080zM16 9.333c-1.768 0-3.464 0.702-4.714 1.953s-1.953 2.946-1.953 4.714c0 1.768 0.702 3.464 1.953 4.714s2.946 1.953 4.714 1.953 3.464-0.702 4.714-1.953c1.25-1.25 1.953-2.946 1.953-4.714s-0.702-3.464-1.953-4.714c-1.25-1.25-2.946-1.953-4.714-1.953zM24.667 9c0-0.442-0.176-0.866-0.488-1.178s-0.737-0.488-1.179-0.488c-0.442 0-0.866 0.176-1.179 0.488s-0.488 0.736-0.488 1.178c0 0.442 0.176 0.866 0.488 1.178s0.737 0.488 1.179 0.488c0.442 0 0.866-0.176 1.179-0.488s0.488-0.736 0.488-1.178zM16 12c1.061 0 2.078 0.421 2.828 1.172s1.172 1.768 1.172 2.828c0 1.061-0.421 2.078-1.172 2.828s-1.768 1.172-2.828 1.172c-1.061 0-2.078-0.421-2.828-1.172s-1.172-1.768-1.172-2.828c0-1.061 0.421-2.078 1.172-2.828s1.768-1.172 2.828-1.172z"></path>
</symbol>
<symbol id="icon-logo" viewBox="0 0 131 32">
<path fill="#598d66" style="fill: var(--color2, #598d66)" d="M16 0l2.254 8.324 6.396-5.784-2.604 8.221 8.508-1.408-6.636 5.508 7.919 3.416-8.56 1.046 4.815 7.154-7.767-3.748 0.183 8.622-4.508-7.352-4.508 7.352 0.183-8.622-7.767 3.748 4.815-7.154-8.56-1.046 7.919-3.416-6.636-5.508 8.508 1.408-2.604-8.221 6.396 5.784 2.254-8.324z"></path>
<path fill="#598d66" style="fill: var(--color2, #598d66)" d="M40.667 22.857v-12.983h2.523v12.983h-2.523zM54.567 22.857h-2.45v-5.376c0-0.768-0.134-1.329-0.402-1.682s-0.64-0.53-1.115-0.53c-0.329 0-0.664 0.085-1.006 0.256-0.329 0.171-0.628 0.408-0.896 0.713-0.268 0.293-0.463 0.634-0.585 1.024v5.595h-2.45v-9.582h2.213v1.774c0.353-0.597 0.865-1.067 1.536-1.408 0.67-0.354 1.426-0.53 2.267-0.53 0.597 0 1.085 0.11 1.463 0.329 0.378 0.207 0.67 0.494 0.878 0.859 0.207 0.354 0.347 0.756 0.421 1.207 0.085 0.451 0.128 0.908 0.128 1.371v5.979zM63.244 22.857l-2.798-4.133-1.298 1.28v2.853h-2.45v-13.349h2.45v8.082l3.858-4.297h2.597l-3.566 4.059 3.822 5.504h-2.615zM66.839 22.857v-2.633h2.011v2.633h-2.011zM86.548 9.874v12.983h-2.505v-5.541h-5.888v5.541h-2.523v-12.983h2.523v5.248h5.888v-5.248h2.505zM93.284 23.040c-1.049 0-1.951-0.226-2.706-0.677-0.744-0.463-1.317-1.073-1.719-1.829s-0.603-1.573-0.603-2.45c0-0.89 0.201-1.713 0.603-2.469 0.414-0.756 0.993-1.359 1.737-1.81 0.756-0.463 1.651-0.695 2.688-0.695s1.925 0.232 2.67 0.695c0.755 0.451 1.335 1.054 1.737 1.81s0.603 1.579 0.603 2.469c0 0.878-0.201 1.694-0.603 2.45s-0.982 1.365-1.737 1.829c-0.744 0.451-1.634 0.677-2.67 0.677zM90.778 18.085c0 0.561 0.11 1.061 0.329 1.499 0.219 0.427 0.518 0.762 0.896 1.006s0.805 0.366 1.28 0.366c0.463 0 0.883-0.122 1.262-0.366 0.378-0.256 0.677-0.597 0.896-1.024 0.231-0.439 0.347-0.939 0.347-1.499 0-0.549-0.116-1.036-0.347-1.463-0.219-0.439-0.518-0.78-0.896-1.024-0.379-0.256-0.799-0.384-1.262-0.384-0.475 0-0.902 0.128-1.28 0.384-0.379 0.244-0.677 0.585-0.896 1.024-0.219 0.427-0.329 0.92-0.329 1.481zM99.856 19.273v-5.998h2.45v5.467c0 1.475 0.53 2.213 1.591 2.213 0.475 0 0.933-0.14 1.371-0.421 0.451-0.293 0.816-0.731 1.097-1.317v-5.943h2.45v6.839c0 0.268 0.042 0.457 0.128 0.567 0.085 0.098 0.238 0.158 0.457 0.183v1.993c-0.244 0.049-0.452 0.079-0.622 0.091-0.159 0.012-0.305 0.018-0.439 0.018-0.439 0-0.799-0.098-1.079-0.293-0.269-0.207-0.427-0.488-0.475-0.841l-0.055-0.768c-0.427 0.658-0.976 1.152-1.646 1.481s-1.408 0.494-2.213 0.494c-0.987 0-1.737-0.317-2.249-0.951-0.512-0.646-0.768-1.585-0.768-2.816zM114.78 23.040c-0.816 0-1.597-0.134-2.341-0.402s-1.383-0.664-1.92-1.189l0.878-1.591c0.573 0.463 1.134 0.805 1.682 1.024s1.085 0.329 1.609 0.329c0.475 0 0.853-0.085 1.134-0.256 0.293-0.171 0.439-0.427 0.439-0.768 0-0.354-0.176-0.591-0.53-0.713-0.354-0.134-0.848-0.299-1.481-0.494-0.707-0.219-1.298-0.445-1.774-0.677s-0.835-0.512-1.079-0.841c-0.231-0.329-0.347-0.756-0.347-1.28 0-0.939 0.354-1.688 1.061-2.249s1.646-0.841 2.816-0.841c0.683 0 1.328 0.11 1.938 0.329 0.61 0.207 1.164 0.549 1.664 1.024l-0.987 1.554c-0.939-0.731-1.847-1.097-2.725-1.097-0.39 0-0.738 0.073-1.042 0.219-0.293 0.146-0.439 0.402-0.439 0.768 0 0.341 0.14 0.585 0.421 0.731 0.293 0.146 0.731 0.305 1.317 0.475 0.756 0.232 1.396 0.457 1.92 0.677 0.537 0.219 0.939 0.5 1.207 0.841 0.281 0.341 0.421 0.805 0.421 1.39 0 0.951-0.347 1.694-1.042 2.231s-1.627 0.805-2.798 0.805zM124.731 23.040c-1.037 0-1.933-0.226-2.688-0.677-0.744-0.451-1.323-1.048-1.737-1.792-0.415-0.756-0.622-1.573-0.622-2.45 0-0.902 0.201-1.731 0.603-2.487 0.414-0.768 0.999-1.378 1.755-1.829 0.755-0.463 1.658-0.695 2.706-0.695s1.944 0.232 2.688 0.695c0.743 0.451 1.31 1.054 1.701 1.81 0.402 0.744 0.603 1.548 0.603 2.414 0 0.317-0.018 0.591-0.055 0.823h-7.406c0.060 0.744 0.335 1.329 0.823 1.755 0.499 0.427 1.072 0.64 1.719 0.64 0.487 0 0.944-0.116 1.371-0.347 0.439-0.244 0.737-0.561 0.896-0.951l2.103 0.585c-0.354 0.731-0.921 1.335-1.701 1.81-0.781 0.463-1.701 0.695-2.761 0.695zM122.225 17.298h5.010c-0.073-0.719-0.347-1.298-0.823-1.737-0.464-0.451-1.030-0.677-1.701-0.677-0.658 0-1.225 0.226-1.701 0.677-0.464 0.439-0.726 1.018-0.786 1.737z"></path>
</symbol>
<symbol id="icon-mob_menu" viewBox="0 0 32 32">
<path fill="#4c5866" style="fill: var(--color4, #4c5866)" d="M5 23c0-0.265 0.105-0.52 0.293-0.707s0.442-0.293 0.707-0.293h20c0.265 0 0.52 0.105 0.707 0.293s0.293 0.442 0.293 0.707c0 0.265-0.105 0.52-0.293 0.707s-0.442 0.293-0.707 0.293h-20c-0.265 0-0.52-0.105-0.707-0.293s-0.293-0.442-0.293-0.707zM5 15c0-0.265 0.105-0.52 0.293-0.707s0.442-0.293 0.707-0.293h20c0.265 0 0.52 0.105 0.707 0.293s0.293 0.442 0.293 0.707c0 0.265-0.105 0.52-0.293 0.707s-0.442 0.293-0.707 0.293h-20c-0.265 0-0.52-0.105-0.707-0.293s-0.293-0.442-0.293-0.707zM5 7c0-0.265 0.105-0.52 0.293-0.707s0.442-0.293 0.707-0.293h20c0.265 0 0.52 0.105 0.707 0.293s0.293 0.442 0.293 0.707c0 0.265-0.105 0.52-0.293 0.707s-0.442 0.293-0.707 0.293h-20c-0.265 0-0.52-0.105-0.707-0.293s-0.293-0.442-0.293-0.707z"></path>
</symbol>
<symbol id="icon-mob_menu_close" viewBox="0 0 32 32">
<path d="M7.2 7.2c0.212-0.212 0.5-0.331 0.8-0.331s0.588 0.119 0.8 0.331l16 16c0.212 0.212 0.331 0.5 0.331 0.8s-0.119 0.588-0.331 0.8c-0.212 0.212-0.5 0.331-0.8 0.331s-0.588-0.119-0.8-0.331l-16-16c-0.212-0.212-0.331-0.5-0.331-0.8s0.119-0.588 0.331-0.8z"></path>
<path d="M24.8 7.2c0.212 0.212 0.331 0.5 0.331 0.8s-0.119 0.588-0.331 0.8l-16 16c-0.212 0.212-0.5 0.331-0.8 0.331s-0.588-0.119-0.8-0.331c-0.212-0.212-0.331-0.5-0.331-0.8s0.119-0.588 0.331-0.8l16-16c0.212-0.212 0.5-0.331 0.8-0.331s0.588 0.119 0.8 0.331z"></path>
</symbol>
<symbol id="icon-shopping-cart" viewBox="0 0 32 32">
<path stroke-linejoin="round" stroke-linecap="round" stroke-miterlimit="4" stroke-width="2.9091" d="M12 29.333c0.736 0 1.333-0.597 1.333-1.333s-0.597-1.333-1.333-1.333-1.333 0.597-1.333 1.333c0 0.736 0.597 1.333 1.333 1.333z"></path>
<path stroke-linejoin="round" stroke-linecap="round" stroke-miterlimit="4" stroke-width="2.9091" d="M26.666 29.333c0.736 0 1.333-0.597 1.333-1.333s-0.597-1.333-1.333-1.333c-0.736 0-1.333 0.597-1.333 1.333s0.597 1.333 1.333 1.333z"></path>
<path stroke-linejoin="round" stroke-linecap="round" stroke-miterlimit="4" stroke-width="2.9091" d="M1.333 1.333h5.333l3.573 17.853c0.122 0.614 0.456 1.165 0.943 1.558s1.098 0.601 1.723 0.589h12.96c0.626 0.012 1.236-0.197 1.723-0.589s0.822-0.944 0.943-1.558l2.133-11.187h-22.667"></path>
</symbol>
<symbol id="icon-star_1" viewBox="0 0 32 32">
<path fill="#598d66" style="fill: var(--color2, #598d66)" d="M16 0l2.254 8.324 6.396-5.784-2.604 8.221 8.508-1.408-6.636 5.508 7.919 3.416-8.56 1.046 4.815 7.154-7.767-3.748 0.183 8.622-4.508-7.352-4.508 7.352 0.183-8.622-7.767 3.748 4.815-7.154-8.56-1.046 7.919-3.416-6.636-5.508 8.508 1.408-2.604-8.221 6.396 5.784 2.254-8.324z"></path>
</symbol>
<symbol id="icon-star_2" viewBox="0 0 32 32">
<path fill="none" stroke="#eedb6d" style="stroke: var(--color5, #eedb6d)" stroke-linejoin="miter" stroke-linecap="butt" stroke-miterlimit="4" stroke-width="1.2152" d="M18.892 8.88l4.813-4.352-2.259 7.131 7.38-1.221-5.755 4.778 6.868 2.962-7.425 0.907 4.176 6.206-6.737-3.251 0.021 0.991 0.137 6.488-3.91-6.377-3.91 6.377 0.137-6.488 0.021-0.991-6.737 3.251 4.176-6.206-7.425-0.907 6.868-2.963-5.755-4.778 7.38 1.221-2.259-7.131 5.548 5.017 1.955-7.22 1.955 7.22 0.735-0.665z"></path>
</symbol>
<symbol id="icon-youtube" viewBox="0 0 32 32">
<path d="M28.724 8.664c0.609 2.376 0.609 7.336 0.609 7.336s0 4.96-0.609 7.336c-0.339 1.313-1.329 2.347-2.584 2.696-2.279 0.635-10.14 0.635-10.14 0.635s-7.857 0-10.14-0.635c-1.26-0.355-2.249-1.387-2.584-2.696-0.609-2.376-0.609-7.336-0.609-7.336s0-4.96 0.609-7.336c0.339-1.313 1.329-2.347 2.584-2.696 2.283-0.635 10.14-0.635 10.14-0.635s7.861 0 10.14 0.635c1.26 0.355 2.249 1.387 2.584 2.696zM13.333 20.667l8-4.667-8-4.667v9.333z"></path>
</symbol>
</defs>
</svg>
